<svg xmlns="http://www.w3.org/2000/svg" viewBox="0 0 64 64">
  <g>
    <path fill="#0f766e" d="M24 6a2 2 0 0 0 2 2h12a2 2 0 0 0 0-4H26a2 2 0 0 0-2 2zM55.91 38.09a23.93 23.93 0 0 0-3.32-14.43 3.08 3.08
            0 0 0-4.82-.6l-9.17 9.17a9.59 9.59 0 0 0-2.68 4.46 4.62 4.62 0 0 1-1.38 2.18A3.69 3.69 0 0 1 31.79 40 4 4 0
            0 1 28 36.21a3.69 3.69 0 0 1 1.13-2.75 4.62 4.62 0 0 1 2.18-1.38 9.59 9.59 0 0 0 4.46-2.68l9.16-9.16a3.08
            3.08 0 0 0-.6-4.82 24 24 0 1 0 11.58 22.67z" />
  </g>
</svg>